<svg width="1024" height="1024" viewBox="0 0 1024 1024" fill="none" xmlns="http://www.w3.org/2000/svg">
<rect width="1024" height="1024" fill="#171C28"/>
<path d="M654.141 642.452V384.93L483.911 513.691M234.807 435.98C230.689 431.579 228.351 425.807 228.247 419.782C228.142 413.756 230.277 407.906 234.239 403.365L268.285 371.883C273.96 366.778 287.862 364.509 298.076 371.883L395.107 445.907L620.095 240.286C629.174 231.21 644.779 227.523 662.653 236.882L776.14 291.053C786.354 297.009 796 306.368 796 323.669V706.549C796 717.894 787.772 730.09 778.977 734.911L654.141 794.47C645.062 798.157 628.039 794.754 622.081 788.798L394.54 581.759L298.076 655.499C287.295 662.873 273.96 660.887 268.285 655.499L234.239 624.301C225.16 614.942 226.295 599.626 235.658 590.267L320.773 513.691" fill="#2E99E5"/>
</svg>
