<svg width="1024" height="1024" viewBox="0 0 1024 1024" fill="none" xmlns="http://www.w3.org/2000/svg">
<rect width="1024" height="1024" fill="#100F1C"/>
<path d="M512 422L602 512L512 602L422 512L512 422Z" fill="#EFEEF6"/>
<path d="M422 512L512 602L422 692L332 602L422 512Z" fill="#C7C5E4"/>
<path d="M332 602L422 692L332 782L242 692L332 602Z" fill="#9795B3"/>
<path d="M242 692L332 782L242 872L152 782L242 692Z" fill="#383651"/>
<path d="M422 332L512 422L422 512L332 422L422 332Z" fill="#C7C5E4"/>
<path d="M332 242L422 332L332 422L242 332L332 242Z" fill="#9795B3"/>
<path d="M242 152L332 242L242 332L152 242L242 152Z" fill="#383651"/>
<path d="M602 512L692 602L602 692L512 602L602 512Z" fill="#C7C5E4"/>
<path d="M692 602L782 692L692 782L602 692L692 602Z" fill="#9795B3"/>
<path d="M782 692L872 782L782 872L692 782L782 692Z" fill="#383651"/>
<path d="M602 332L692 422L602 512L512 422L602 332Z" fill="#C7C5E4"/>
<path d="M692 242L782 332L692 422L602 332L692 242Z" fill="#9795B3"/>
<path d="M782 152L872 242L782 332L692 242L782 152Z" fill="#383651"/>
</svg>
